<svg xmlns="http://www.w3.org/2000/svg" version="1.1" xmlns:xlink="http://www.w3.org/1999/xlink" xmlns:svgjs="http://svgjs.com/svgjs" width="1440" height="560" preserveAspectRatio="none" viewBox="0 0 1440 560"><g mask="url(&quot;#SvgjsMask1001&quot;)" fill="none"><rect width="1440" height="560" x="0" y="0" fill="#1e3266"></rect><path d="M1512 560L0 560 L0 398.15Q-22.27 303.88, 72 281.61Q152.01 241.62, 192 321.63Q287.64 297.27, 312 392.91Q365.57 326.49, 432 380.06Q476.06 304.12, 552 348.17Q566.88 291.05, 624 305.92Q674.64 236.56, 744 287.2Q802.91 274.11, 816 333.02Q884.37 281.39, 936 349.76Q947.7 289.46, 1008 301.16Q1052.31 273.47, 1080 317.78Q1143.81 309.59, 1152 373.4Q1194.9 296.3, 1272 339.21Q1367.43 314.64, 1392 410.07Q1446.44 344.51, 1512 398.95z" fill="#182f5d"></path><path d="M1512 560L0 560 L0 387.09Q66.23 333.31, 120 399.54Q167.16 326.7, 240 373.85Q294.5 356.35, 312 410.84Q408.64 387.48, 432 484.11Q441.67 373.78, 552 383.45Q593.16 352.61, 624 393.77Q666.23 364, 696 406.23Q748.71 386.94, 768 439.65Q854.39 406.04, 888 492.43Q926.65 411.08, 1008 449.72Q1023.31 393.03, 1080 408.34Q1124.94 333.28, 1200 378.23Q1299.04 357.27, 1320 456.31Q1373.25 389.56, 1440 442.81Q1466.82 397.63, 1512 424.45z" fill="#25467d"></path><path d="M1488 560L0 560 L0 503.65Q54.44 486.09, 72 540.53Q118.47 515, 144 561.46Q170.09 467.55, 264 493.63Q291.88 449.51, 336 477.39Q388.79 458.18, 408 510.97Q474.77 505.75, 480 572.52Q492.67 513.19, 552 525.86Q581.29 483.15, 624 512.44Q683.93 500.37, 696 560.3Q700.85 493.14, 768 497.99Q788.64 446.63, 840 467.28Q922.15 477.43, 912 559.58Q953.59 529.17, 984 570.77Q998.54 513.31, 1056 527.84Q1084.81 484.65, 1128 513.47Q1221.55 487.01, 1248 580.56Q1280.68 493.24, 1368 525.93Q1412.08 450.01, 1488 494.09z" fill="#356cb1"></path></g><defs><mask id="SvgjsMask1001"><rect width="1440" height="560" fill="#ffffff"></rect></mask></defs></svg>