<svg xmlns="http://www.w3.org/2000/svg" version="1.1" xmlns:xlink="http://www.w3.org/1999/xlink" xmlns:svgjs="http://svgjs.com/svgjs" width="1440" height="700" preserveAspectRatio="none" viewBox="0 0 1440 700"><g mask="url(&quot;#SvgjsMask1036&quot;)" fill="none"><rect width="1440" height="700" x="0" y="0" fill="#0e2a47"></rect><path d="M82 700L782 0L993.5 0L293.5 700z" fill="url(#SvgjsLinearGradient1037)"></path><path d="M531.2 700L1231.2 0L1882.2 0L1182.2 700z" fill="url(#SvgjsLinearGradient1037)"></path><path d="M1395 700L695 0L395 0L1095 700z" fill="url(#SvgjsLinearGradient1038)"></path><path d="M870.8 700L170.79999999999995 0L-295.70000000000005 0L404.29999999999995 700z" fill="url(#SvgjsLinearGradient1038)"></path><path d="M851.0110193731883 700L1440 111.01101937318833L1440 700z" fill="url(#SvgjsLinearGradient1037)"></path><path d="M0 700L588.9889806268117 700L 0 111.01101937318833z" fill="url(#SvgjsLinearGradient1038)"></path></g><defs><mask id="SvgjsMask1036"><rect width="1440" height="700" fill="#ffffff"></rect></mask><linearGradient x1="0%" y1="100%" x2="100%" y2="0%" id="SvgjsLinearGradient1037"><stop stop-color="rgba(15, 70, 185, 0.2)" offset="0"></stop><stop stop-opacity="0" stop-color="rgba(15, 70, 185, 0.2)" offset="0.66"></stop></linearGradient><linearGradient x1="100%" y1="100%" x2="0%" y2="0%" id="SvgjsLinearGradient1038"><stop stop-color="rgba(15, 70, 185, 0.2)" offset="0"></stop><stop stop-opacity="0" stop-color="rgba(15, 70, 185, 0.2)" offset="0.66"></stop></linearGradient></defs></svg>